<?xml version="1.0" encoding="UTF-8" standalone="no"?>
<!-- Created with Inkscape (http://www.inkscape.org/) -->

<svg
   version="1.1"
   id="svg1"
   width="853.51605"
   height="831"
   viewBox="0 0 853.51605 831"
   sodipodi:docname="simplestIconnopurp50.svg"
   inkscape:version="1.4.2 (f4327f4, 2025-05-13)"
   inkscape:export-filename="simplestIconnopurp50.png"
   inkscape:export-xdpi="96"
   inkscape:export-ydpi="96"
   xmlns:inkscape="http://www.inkscape.org/namespaces/inkscape"
   xmlns:sodipodi="http://sodipodi.sourceforge.net/DTD/sodipodi-0.dtd"
   xmlns:xlink="http://www.w3.org/1999/xlink"
   xmlns="http://www.w3.org/2000/svg"
   xmlns:svg="http://www.w3.org/2000/svg">
  <defs
     id="defs1">
    <linearGradient
       id="linearGradient20"
       inkscape:collect="always">
      <stop
         style="stop-color:#e48a3c;stop-opacity:1;"
         offset="0"
         id="stop20" />
      <stop
         style="stop-color:#6ec7d1;stop-opacity:1;"
         offset="0.37800968"
         id="stop22" />
      <stop
         style="stop-color:#b4cdd1;stop-opacity:0.81521738;"
         offset="0.63410598"
         id="stop1" />
      <stop
         style="stop-color:#6ec7d1;stop-opacity:1;"
         offset="0.79304636"
         id="stop21" />
    </linearGradient>
    <clipPath
       clipPathUnits="userSpaceOnUse"
       id="clipPath19">
      <rect
         style="fill:none;stroke:#000000;stroke-width:1.88;stroke-linecap:round;stroke-linejoin:round;paint-order:stroke markers fill"
         id="rect20"
         width="1783.436"
         height="1663.5413"
         x="259.05853"
         y="74.934288"
         ry="8.2639532" />
    </clipPath>
    <radialGradient
       inkscape:collect="always"
       xlink:href="#linearGradient20"
       id="radialGradient21"
       cx="583.18347"
       cy="763.87616"
       fx="583.18347"
       fy="763.87616"
       r="889.91266"
       gradientTransform="matrix(0.87614942,0.88980861,-0.87027598,0.85691661,991.68524,-592.92877)"
       gradientUnits="userSpaceOnUse" />
  </defs>
  <sodipodi:namedview
     id="namedview1"
     pagecolor="#ffffff"
     bordercolor="#000000"
     borderopacity="0.25"
     inkscape:showpageshadow="2"
     inkscape:pageopacity="0.0"
     inkscape:pagecheckerboard="0"
     inkscape:deskcolor="#d1d1d1"
     showgrid="false"
     inkscape:zoom="0.46707589"
     inkscape:cx="920.62127"
     inkscape:cy="881.01315"
     inkscape:window-width="1920"
     inkscape:window-height="1017"
     inkscape:window-x="-8"
     inkscape:window-y="-8"
     inkscape:window-maximized="1"
     inkscape:current-layer="g1" />
  <g
     inkscape:groupmode="layer"
     inkscape:label="Image"
     id="g1"
     transform="translate(-262.66922,-75)">
    <path
       style="fill:url(#radialGradient21);stroke:#000000;stroke-opacity:1"
       d="m 2037.1076,924.99999 c 4.3056,0 0.6344,1.5139 -8.9365,3.68522 -5.3191,1.20672 -13.4961,3.1476 -18.1711,4.31305 -4.675,1.16545 -9.4989,1.93263 -10.7197,1.70483 -1.2209,-0.2278 -1.9818,-0.0292 -1.691,0.44136 0.2908,0.47055 0.3076,0.85554 0.037,0.85554 -0.2703,0 -5.6308,1.32514 -11.9123,2.94475 -6.2815,1.61961 -12.4994,2.70557 -13.8176,2.41325 -1.6668,-0.36964 -1.9942,-0.24522 -1.075,0.40857 0.9437,0.67127 -0.057,1.22843 -3.5,1.94858 -9.7145,2.03191 -43.8133,10.98345 -46.8217,12.29155 -4.8767,2.12042 -21.568,5.76915 -23.75,5.19176 -0.4125,-0.10915 -0.75,0.29968 -0.75,0.90853 0,0.60884 -0.7257,0.8285 -1.6127,0.48812 -0.8871,-0.34038 -3.0246,0.23517 -4.75,1.27899 -1.7255,1.04382 -4.2623,2.21955 -5.6373,2.61272 -1.375,0.39318 -7.45,2.40247 -13.5,4.46509 -6.05,2.06262 -13.025,4.3484 -15.5,5.0795 -2.475,0.73111 -6.6919,2.40827 -9.3708,3.72702 -3.2207,1.58539 -5.7198,2.18467 -7.3765,1.76885 -1.963,-0.49267 -2.381,-0.30409 -1.9302,0.87073 0.3718,0.96882 -0.2029,1.74015 -1.6235,2.17921 -4.465,1.37993 -30.5075,12.37982 -40.1045,16.93939 -19.2943,9.1669 -59.3027,34.8528 -73.8871,47.4365 -2.3141,1.9966 -10.2824,8.4599 -17.7074,14.3628 -16.4605,13.0862 -25.0417,20.162 -36,29.6845 -3.025,2.6286 -9.325,8.1016 -14,12.1621 -4.675,4.0606 -10.975,9.3922 -14,11.8481 -4.4086,3.5791 -26.674,22.8314 -40,34.587 -1.375,1.213 -9.2154,7.9872 -17.423,15.0539 -8.2077,7.0667 -19.4577,16.9203 -25,21.897 -5.5424,4.9767 -13.677,12.1137 -18.077,15.86 -4.4,3.7463 -9.125,7.7837 -10.5,8.9721 -1.375,1.1884 -7.4394,6.4264 -13.4764,11.64 -6.0371,5.2137 -13.9121,12.2041 -17.5,15.5343 -3.588,3.3302 -8.0986,7.3241 -10.0236,8.8754 -1.925,1.5513 -6.425,5.4325 -10,8.6249 -3.575,3.1924 -13.025,11.5437 -21,18.5584 -13.3746,11.7642 -19.0788,16.8989 -42.9604,38.6721 -9.938,9.0606 -10.7461,9.7818 -17.4722,15.5908 -22.7701,19.6658 -81.4825,74.0498 -91.5674,84.8169 -9.5713,10.2187 -18.2428,20.1415 -22.5524,25.8066 -9.5212,12.5158 -13.874,18.1119 -15.1678,19.5 -0.769,0.825 -2.8529,3.75 -4.631,6.5 -1.778,2.75 -5.5223,8.375 -8.3206,12.5 -9.4824,13.9782 -30.0705,55.8722 -36.7103,74.7006 -1.3966,3.9604 -2.9738,8.0104 -3.5048,9 -0.5311,0.9897 -2.5954,6.5244 -4.5873,12.2994 -1.992,5.775 -4.7133,13.425 -6.0475,17 -3.3843,9.0685 -12.7123,38.5103 -15.9999,50.5 -1.5081,5.5 -4.4513,15.85 -6.5403,23 -2.0891,7.15 -5.6674,19.75 -7.9517,28 -2.2843,8.25 -5.4416,19.275 -7.0163,24.5 -1.5747,5.225 -3.3545,11.4125 -3.9551,13.75 -0.6007,2.3375 -1.4622,4.25 -1.9145,4.25 -0.4524,0 -2.0241,-4.6125 -3.4926,-10.25 h 3e-4 c -3.8257,-14.686 -4.6243,-17.5366 -12.5362,-44.75 -3.9177,-13.475 -8.7045,-30.125 -10.6373,-37 -8.6116,-30.6311 -25.9898,-80.4327 -36.6395,-105 -10.0375,-23.155 -29.863,-60.2993 -36.4688,-68.3267 -1.2793,-1.5547 -2.3261,-3.4297 -2.3261,-4.1667 0,-0.737 -0.3526,-1.4899 -0.7836,-1.6733 -0.431,-0.1833 -2.9902,-3.2583 -5.687,-6.8333 -2.6968,-3.575 -6.0567,-7.8983 -7.4664,-9.6073 -1.4096,-1.709 -3.2456,-3.959 -4.0798,-5 -9.9434,-12.4079 -15.5293,-18.5744 -31.1819,-34.4225 -16.35647,-16.5608 -38.61292,-37.588 -61.72448,-58.3155 -4.38767,-3.9351 -20.00284,-17.9547 -34.70038,-31.1547 -14.69755,-13.2 -29.90738,-26.7313 -33.79963,-30.0696 -3.89224,-3.3383 -10.4756,-9.1883 -14.62967,-13 -4.15408,-3.8117 -12.70408,-11.4711 -19,-17.0208 -6.29593,-5.5497 -21.59591,-19.0497 -33.99997,-30 -12.40405,-10.9503 -30.85405,-27.1528 -41,-36.0056 -10.14594,-8.8528 -22.76465,-19.8778 -28.04157,-24.5 -10.32863,-9.0471 -30.52019,-26.4012 -42.93806,-36.904 -4.22685,-3.575 -16.86128,-14.375 -28.07649,-24 -11.21522,-9.625 -22.56094,-19.3 -25.21272,-21.5 -2.65179,-2.2 -8.50173,-7.057 -12.99988,-10.7934 -24.66274,-20.486 -52.77289,-42.3793 -64.79466,-50.4647 C 525.3569,998.31276 475.31267,977.45676 395.5,954.81754 c -23.87585,-6.7725 -92.1843,-23.02279 -121,-28.7854 -8.90122,-1.78008 -13.0895,-2.9859 -11.5,-3.31089 1.375,-0.28114 7.675,-1.49405 14,-2.69537 9.71594,-1.84537 74.20039,-17.56686 98.98373,-24.13252 24.77525,-6.56352 76.45331,-23.08748 97.51627,-31.18064 14.29926,-5.4943 44.95867,-19.35342 57.5,-25.99201 24.08957,-12.7515 46.88382,-27.8525 72.01021,-47.70619 5.23062,-4.13299 11.08062,-8.6932 13,-10.13382 3.12043,-2.34206 11.50594,-9.46601 54.48979,-46.29205 21.19969,-18.16266 49.62025,-42.7749 77.49878,-67.11406 10.72567,-9.36397 21.36456,-18.58897 23.64199,-20.5 C 776.16438,643.17874 788.07051,632.8611 812,612 c 8.525,-7.43187 20.225,-17.52863 26,-22.43725 5.775,-4.90861 13.21847,-11.4308 16.54104,-14.49375 3.32257,-3.06295 11.16901,-10.069 17.43653,-15.569 6.26752,-5.5 17.62169,-15.54644 25.2315,-22.32543 7.6098,-6.77899 17.36075,-15.32899 21.66877,-19 23.2613,-19.82176 82.13366,-76.77657 97.34526,-94.17457 13.0663,-14.94435 15.2389,-17.75933 31.8241,-41.23337 7.8015,-11.04197 23.9528,-37.78792 23.9528,-39.66491 0,-0.41522 1.9194,-4.32047 4.2653,-8.67833 2.3459,-4.35786 6.0145,-11.97339 8.1525,-16.92339 4.2292,-9.79205 6.5701,-15.18517 9.4405,-21.75 2.8622,-6.546 8.7334,-21.68369 10.5689,-27.25 0.9069,-2.75 3.8261,-11.525 6.4871,-19.5 2.661,-7.975 5.7689,-17.65 6.9063,-21.5 1.1375,-3.85 3.7296,-12.4 5.7603,-19 4.0607,-13.19834 11.0811,-38.71464 12.381,-45 0.455,-2.2 1.5282,-6.475 2.3849,-9.5 4.8215,-17.02484 5.9091,-21.05956 7.1722,-26.60743 0.7647,-3.35908 3.1653,-13.03408 5.3346,-21.5 2.1692,-8.465913 4.7318,-18.88007 5.6946,-23.14257 0.9628,-4.2625 2.056,-7.75 2.4294,-7.75 0.3734,0 1.2074,2.1375 1.8533,4.75 0.6459,2.6125 1.8743,7.225 2.7297,10.25 1.6762,5.927439 6.0864,22.57762 12.3166,46.5 2.1486,8.25 5.132,19.5 6.6298,25 1.4978,5.5 3.0661,11.35 3.4851,13 5.8845,23.1739 21.3728,73.30288 27.9616,90.5 1.5805,4.125 4.0946,10.875 5.5869,15 2.5807,7.13339 9.6221,24.50985 15.196,37.5 5.4639,12.73362 11.7962,25.37893 17.2763,34.5 3.1393,5.225 6.7301,11.51119 7.9797,13.96932 1.2495,2.45812 3.0564,5.60812 4.0154,7 0.959,1.39187 3.9077,5.90568 6.5526,10.03068 2.645,4.125 6.5259,9.58745 8.6242,12.13878 2.0984,2.55133 3.8152,4.92327 3.8152,5.27097 0,0.82587 12.0327,16.53678 18.1022,23.63567 8.5246,9.97048 36.6452,37.57181 50.8944,49.95458 4.1139,3.575 11.0851,9.908 15.4916,14.07333 11.5377,10.90624 29.0476,26.67691 36.0118,32.4348 3.3,2.72839 9.375,8.14672 13.5,12.04073 15.048,14.2054 19.5824,18.3427 23.6886,21.61407 2.3038,1.83539 10.1854,8.73707 17.5147,15.33707 14.6781,13.21752 24.2147,21.6506 32.2293,28.5 12.6831,10.83924 26.2399,22.57054 28.2602,24.45482 2.4889,2.32128 4.0273,3.65887 13.8153,12.01209 3.8456,3.2818 9.7573,8.4568 13.1372,11.5 11.169,10.05632 19.7577,17.62421 27.3547,24.10333 7.5797,6.4644 9.0191,7.71247 19.073,16.53778 7.1765,6.29954 30.1812,26.01024 34.8388,29.85038 1.9735,1.62711 7.8953,6.80211 13.1595,11.5 5.2642,4.69788 12.6625,11.0166 16.4407,14.0416 3.7781,3.025 8.696,7.11412 10.9287,9.08693 10.2186,9.02943 39.6319,33.93589 50.2671,42.56489 20.4498,16.59218 52.8057,37.24075 74.9711,47.84434 3.9484,1.88886 11.3734,5.51858 16.5,8.06606 11.1428,5.53702 35.9961,15.39634 55.3211,21.94596 7.7,2.60968 16.25,5.62974 19,6.71125 8.5684,3.36975 43.4234,13.80691 61.5,18.41589 5.225,1.33221 16.7,4.25572 25.5,6.49669 23.6711,6.02797 34.8778,9.10295 36,9.87798 0.55,0.37985 3.925,1.248 7.5,1.92922 3.575,0.68122 7.4,1.61723 8.5,2.08002 1.1,0.46278 3.8,1.39663 6,2.07521 3.5334,1.08988 5.4276,1.42368 10.25,1.80637 0.6875,0.0546 1.25,0.60544 1.25,1.22419 0,0.71689 -1.179,0.92282 -3.25,0.56767 -1.7875,-0.30654 -2.6847,-0.32435 -1.9938,-0.0396 0.691,0.28476 1.0019,0.92931 0.691,1.43233 -0.3109,0.50302 0.4363,0.91459 1.6604,0.91459 m -868.8201,545.41231 c 3.9669,-3.8845 18.4625,-17.5744 32.2125,-30.4221 13.75,-12.8477 28.8342,-26.9889 33.5205,-31.4248 4.6862,-4.436 14.5599,-13.6904 21.9414,-20.5654 7.3816,-6.875 16.5974,-15.4702 20.4796,-19.1005 3.8822,-3.6303 9.973,-9.2553 13.5351,-12.5 3.5621,-3.2447 13.1573,-12.1995 21.3227,-19.8995 8.1654,-7.7 18.5668,-17.375 23.1143,-21.5 4.5475,-4.125 13.8523,-12.7162 20.6773,-19.0915 6.825,-6.3754 16.5506,-15.2719 21.6124,-19.77 5.0619,-4.4982 9.4704,-8.6105 9.7967,-9.1385 0.3263,-0.528 4.7348,-4.6436 9.7967,-9.1458 5.0618,-4.5021 12.59,-11.3736 16.7292,-15.2699 4.1392,-3.8964 15.3637,-14.2843 24.9433,-23.0843 9.5796,-8.8 23.699,-21.85 31.3766,-29 7.6776,-7.15 19.1781,-17.7137 25.5567,-23.475 6.3786,-5.7612 15.4225,-14.1316 20.0975,-18.6008 13.1369,-12.5586 30.6487,-28.7289 47.0267,-43.4242 5.2103,-4.675 12.5505,-11.5309 16.3115,-15.2353 3.7611,-3.7045 8.2611,-7.9167 10,-9.3605 4.196,-3.4838 9.2449,-8.1012 27.1618,-24.8405 8.25,-7.7077 17.4421,-16.2752 20.4269,-19.0389 2.9848,-2.7636 9.2848,-8.6535 14,-13.0886 4.7152,-4.4351 11.7231,-10.9465 15.5731,-14.4699 3.85,-3.5233 10.375,-9.66787 14.5,-13.65462 4.125,-3.98676 8.5058,-8.09728 9.7351,-9.1345 1.2292,-1.03722 5.0759,-4.53891 8.5482,-7.78152 3.4722,-3.24261 11.445,-10.62066 17.7172,-16.39566 6.2722,-5.775 15.1769,-14.1 19.7881,-18.5 4.6113,-4.4 9.0203,-8.1455 9.7978,-8.32332 0.7775,-0.17783 1.4136,-0.6545 1.4136,-1.05928 0,-0.40477 2.2938,-3.11574 5.0974,-6.02438 l 5.0974,-5.28844 -8.8702,-8.65229 c -4.8785,-4.75876 -12.0098,-11.51372 -15.8473,-15.01102 -3.8375,-3.49729 -10.5773,-9.80203 -14.9773,-14.01051 -4.4,-4.20848 -12.725,-11.92206 -18.5,-17.14128 -9.9893,-9.02796 -20.6937,-19.00101 -38.5218,-35.89016 -4.4121,-4.17962 -12.2871,-11.41582 -17.5,-16.08042 -5.213,-4.66461 -13.7532,-12.57104 -18.9782,-17.56985 -5.225,-4.99881 -14.9,-13.95999 -21.5,-19.91374 -6.6,-5.95374 -13.8181,-12.67231 -16.0401,-14.93015 -2.2221,-2.25784 -8.9721,-8.57015 -15,-14.02735 -6.028,-5.45721 -12.589,-11.53221 -14.58,-13.5 -3.5386,-3.49723 -18.8607,-17.63257 -29.8634,-27.55038 -3.0341,-2.73492 -8.8915,-8.18939 -13.0165,-12.12105 -4.125,-3.93165 -10.65,-9.98545 -14.5,-13.45287 -3.85,-3.46742 -10.15,-9.33037 -14,-13.02877 -3.85,-3.69841 -9.9872,-9.35696 -13.6382,-12.57456 -3.651,-3.2176 -14.001,-12.64496 -23,-20.94969 -20.8314,-19.22426 -51.1999,-47.03637 -60.3168,-55.23927 -3.8747,-3.48633 -8.845,-8.0144 -11.045,-10.06238 -2.2,-2.04798 -9.625,-8.82837 -16.5,-15.06754 -6.875,-6.23916 -17.9,-16.37862 -24.5,-22.53212 -6.6,-6.1535 -15.6,-14.29298 -20,-18.08772 -4.4,-3.79475 -8.1381,-7.20397 -8.3068,-7.57605 -0.3,-0.66135 -12.53,-11.84749 -27.1531,-24.83541 -4.025,-3.575 -8.5391,-7.625 -10.0313,-9 -1.4922,-1.375 -13.4671,-12.37887 -26.6109,-24.45304 -13.1438,-12.07417 -27.4382,-25.34917 -31.7652,-29.5 -4.327,-4.15083 -8.3909,-7.99696 -9.0308,-8.54696 -6.7667,-5.81585 -33.0813,-30.01383 -38.8771,-35.75 -3.1954,-3.1625 -6.0223,-5.75 -6.282,-5.75 -0.2597,0 -1.2648,1.30329 -2.2335,2.89621 -1.5443,2.53934 -25.7166,25.6034 -38.2406,36.48732 -2.4578,2.13594 -7.6216,6.86094 -11.4752,10.5 -3.8536,3.63906 -10.8138,9.99147 -15.4671,14.11647 -4.6533,4.125 -11.8503,10.6829 -15.9935,14.5731 -4.1431,3.89021 -10.6829,9.93971 -14.5329,13.44335 -3.85,3.50363 -12.625,11.60227 -19.5,17.99698 -20.4274,19.00029 -36.9539,34.16651 -42.90986,39.37783 -3.07458,2.69019 -11.41521,10.34019 -18.53473,17 -14.40279,13.47278 -19.07113,17.7502 -35.05541,32.11994 -6.05,5.4389 -17.075,15.57443 -24.5,22.52339 -14.93191,13.97459 -39.67361,36.58863 -64.95754,59.37152 -15.28018,13.76869 -33.53029,30.66406 -52.04246,48.17926 -6.7157,6.35402 -21.42371,19.96272 -82.48245,76.31754 -9.89035,9.1284 -23.78393,21.99709 -30.87463,28.59709 -7.09071,6.6 -19.0236,17.57003 -26.51756,24.37785 -20.92464,19.00882 -76.47605,70.86905 -94.11279,87.85936 l -7.51257,7.23722 5.5,5.1876 c 3.025,2.85318 8.65,8.16699 12.5,11.80846 3.85,3.64147 12.85,11.98815 20,18.54817 7.15,6.56002 22.675,20.9701 34.5,32.02239 11.825,11.05225 24.425,22.78195 28,26.06575 3.575,3.2839 19.03863,17.6533 34.36363,31.932 15.325,14.2787 30.92424,28.6612 34.66498,31.9612 6.40595,5.6512 30.76023,28.3176 65.99191,61.4182 8.53628,8.02 24.27483,22.6818 34.97455,32.5818 10.69971,9.9 26.21548,24.3094 34.47948,32.0209 8.264,7.7114 22.22545,20.5322 31.02545,28.4905 8.8,7.9584 16.225,14.704 16.5,14.9903 0.94602,0.985 46.50637,43.4276 52.5,48.9074 3.3,3.0171 12.975,12.0698 21.5,20.1171 8.525,8.0473 17.525,16.3895 20,18.5381 2.475,2.1487 7.875,7.1086 12,11.0219 4.125,3.9133 13.8,12.8925 21.5,19.9537 14.1338,12.9612 24.7765,22.8765 58.5,54.5017 41.8893,39.283 49.6604,46.6235 53,50.0627 3.3988,3.5002 5.6696,4.918 7.2875,4.5499 0.4332,-0.099 4.0332,-3.3574 8,-7.2419 z m -15.8151,-37.1812 c -6.7808,-6.4473 -12.2812,-11.4951 -27.4724,-25.2121 -5.775,-5.2146 -14.1,-12.9196 -18.5,-17.1223 -4.4,-4.2026 -10.25,-9.6117 -13,-12.0201 -2.75,-2.4084 -9.5,-8.693 -15,-13.9658 -10.3091,-9.8832 -19.1514,-18.0697 -45,-41.6623 -8.25,-7.53 -15.675,-14.4476 -16.5,-15.3724 -0.825,-0.9249 -7.8,-7.4261 -15.5,-14.4473 -18.52561,-16.8923 -45.24543,-41.8772 -49,-45.8184 -1.65,-1.7321 -7.06428,-6.9655 -12.03173,-11.6298 -18.47983,-17.3522 -36.2239,-33.8789 -44.62422,-41.5629 -4.76078,-4.3547 -18.93578,-17.546 -31.5,-29.3139 -12.56423,-11.7679 -28.23426,-26.3929 -34.82229,-32.5 -6.58803,-6.1071 -19.41303,-18.0817 -28.5,-26.6102 -13.77631,-12.9297 -35.86743,-33.382 -73.49624,-68.044 -3.31404,-3.0528 -15.2622,-14.0778 -26.55147,-24.5 C 689.68479,1003.0273 675.52068,990 669.49827,984.5 c -6.02241,-5.5 -17.48574,-16.11071 -25.47406,-23.57936 -7.98831,-7.46865 -20.23752,-18.83498 -27.22045,-25.25851 -6.98293,-6.42353 -12.94762,-12.08588 -13.25485,-12.583 -0.30724,-0.49711 4.26313,-5.33079 10.15636,-10.74149 5.89324,-5.4107 17.48293,-16.15563 25.75486,-23.87761 8.27193,-7.72198 28.98639,-26.84698 46.03214,-42.5 17.04574,-15.65302 33.69574,-30.97321 37,-34.04487 10.82464,-10.06269 36.86949,-34.15165 43.50773,-40.24043 3.575,-3.2791 9.65,-8.94661 13.5,-12.59448 3.85,-3.64787 11.5,-10.65722 17,-15.57632 11.68038,-10.44675 20.26702,-18.31422 30,-27.48737 3.85,-3.62856 11.95,-11.06312 18,-16.52125 6.05,-5.45814 19.33279,-17.58995 29.51731,-26.9596 10.18453,-9.36964 22.33453,-20.38249 27,-24.473 4.66548,-4.09052 9.15769,-8.21244 9.98269,-9.15983 0.825,-0.94739 6.93288,-6.60061 13.57306,-12.56271 13.41237,-12.04272 50.26377,-46.30205 63.42694,-58.9656 4.675,-4.49756 10.975,-10.31628 14,-12.93048 5.8346,-5.04225 22.4942,-20.28242 34.9808,-32.00039 4.1356,-3.88096 10.6692,-9.94526 14.5192,-13.47621 3.85,-3.53096 10.6,-9.86416 15,-14.07378 7.1268,-6.81843 18.3403,-17.04673 47.5733,-43.39371 4.882,-4.4 14.153,-12.89623 20.6021,-18.8805 15.2112,-14.11456 23.2588,-20.77817 24.3097,-20.12872 0.4642,0.28692 1.0497,-0.0436 1.3011,-0.73455 0.27,-0.74205 4.9205,3.04142 11.3621,9.24377 5.9978,5.775 17.4111,16.35 25.3629,23.5 7.9519,7.15 18.5148,16.85275 23.4733,21.56166 4.9585,4.70892 10.5905,9.82381 12.5155,11.36642 1.925,1.54262 9.575,8.51855 17,15.50207 7.425,6.98353 19.125,17.80398 26,24.04546 6.875,6.24147 21.7028,19.93779 32.9507,30.43626 11.2479,10.49847 24.7479,22.89023 30,27.53724 5.2521,4.64701 12.6993,11.43903 16.5493,15.09338 3.85,3.65436 14.65,13.56807 24,22.03049 9.35,8.46241 17.4855,15.84539 18.0789,16.40661 4.7504,4.49301 31.0751,28.71435 48.3866,44.52041 10.5117,9.59757 17.6967,16.27493 41.965,39 7.3419,6.875 14.9516,13.85 16.9105,15.5 1.959,1.65 5.1767,4.575 7.1505,6.5 1.9738,1.925 8.7457,8.19714 15.0486,13.93808 6.303,5.74094 17.7599,16.36588 25.4599,23.61098 7.7,7.24509 15.7997,14.69795 17.9993,16.56192 4.5362,3.844 36.735,33.33613 55.5007,50.83521 6.875,6.41097 15.1926,14.10824 18.4837,17.10506 3.291,2.99681 6.441,5.96108 7,6.58727 0.5589,0.62619 3.4913,3.28636 6.5163,5.91149 3.025,2.62514 12.25,11.1573 20.5,18.96036 8.25,7.80307 18.1324,17.06789 21.9608,20.58851 7.2514,6.66835 11.0512,10.45976 13.4605,13.43076 1.2893,1.58998 0.4519,2.69078 -9.024,11.86149 -5.7448,5.55988 -16.5094,15.72678 -23.9212,22.59312 -7.4119,6.86634 -17.3011,16.13143 -21.9761,20.58908 -4.675,4.45765 -10.2892,9.63974 -12.4761,11.51574 -4.4788,3.84221 -9.3208,8.27771 -31.6068,28.95373 -8.5707,7.9515 -20.0193,18.5072 -25.4415,23.4572 -5.4222,4.95 -13.4849,12.3315 -17.9171,16.4034 -4.4322,4.0718 -10.7585,9.8663 -14.0585,12.8766 -3.3,3.0104 -8.9273,8.2289 -12.5052,11.5967 -3.5779,3.3678 -11.8938,11.0733 -18.4798,17.1233 -13.5113,12.4116 -38.439,35.6053 -58.4543,54.3882 -7.3917,6.9365 -14.1741,13.2868 -15.072,14.1118 -8.3076,7.6327 -15.6958,14.5164 -21.9887,20.4872 -4.125,3.9138 -14.25,13.2869 -22.5,20.8292 -8.25,7.5422 -21.975,20.2526 -30.5,28.2453 -8.525,7.9926 -22.2114,20.6985 -30.4143,28.2352 -8.2028,7.5367 -17.4278,16.1019 -20.5,19.0338 -3.0721,2.9319 -15.6823,14.6319 -28.0227,26 -12.3403,11.3681 -27.4153,25.4678 -33.5,31.3326 -6.0846,5.8648 -12.638,11.9224 -14.563,13.4612 -1.925,1.5388 -7.325,6.4502 -12,10.9142 -4.675,4.464 -12.1,11.4387 -16.5,15.4994 -8.7934,8.1153 -27.6465,25.7364 -48.4714,45.3039 -7.4093,6.9619 -13.9343,12.6495 -14.5,12.6391 -0.5657,-0.01 -3.741,-2.5979 -7.0562,-5.75 z m 29.0447,-51.7311 c 11.9131,-11 24.9376,-22.9264 28.9433,-26.5032 10.6825,-9.5386 39.2827,-35.914 52.0453,-47.9968 15.4029,-14.5824 34.7111,-32.5266 49.4943,-45.9978 6.875,-6.2649 14.975,-13.7128 18,-16.551 22.8738,-21.461 38.465,-36.0002 44,-41.031 3.575,-3.2493 13.2693,-12.2106 21.5429,-19.914 8.2737,-7.7034 19.0737,-17.5896 24,-21.9693 9.262,-8.2341 18.0422,-16.4248 36.9911,-34.5073 6.0688,-5.7913 13.4938,-12.7515 16.5,-15.4672 3.0063,-2.7156 9.0726,-8.3406 13.4806,-12.5 4.4081,-4.1593 10.9332,-10.2624 14.5003,-13.5624 3.5671,-3.3 16.8649,-15.675 29.5507,-27.5 22.8694,-21.3177 55.0879,-51.0882 58.472,-54.0295 4.6103,-4.00675 18.8612,-17.03705 23.8655,-21.82128 3.0783,-2.94293 7.3969,-6.96122 9.5969,-8.92954 4.2074,-3.76431 22.3864,-20.53596 36.0073,-33.21968 4.4298,-4.125 9.1877,-8.4 10.573,-9.5 1.3853,-1.1 3.6645,-3.5028 5.0647,-5.33955 l 2.5459,-3.33954 -5.1921,-4.91046 C 1668.6432,914.2097 1666.0329,912 1665.6981,912 c -0.3348,0 -3.0327,-2.3625 -5.9954,-5.25 -2.9626,-2.8875 -7.3703,-7.01343 -9.7947,-9.16873 -2.4244,-2.1553 -10.4035,-9.5803 -17.7313,-16.5 -7.3279,-6.9197 -14.5584,-13.70627 -16.0678,-15.08127 -1.5094,-1.375 -7.8888,-7.27502 -14.1766,-13.11116 -6.2878,-5.83614 -12.7823,-11.83354 -14.4323,-13.32755 -4.137,-3.74592 -30.0863,-27.66702 -67.9969,-62.68226 -2.7517,-2.54154 -7.9381,-7.26654 -11.5253,-10.5 -9.0203,-8.13079 -22.6914,-20.407 -25.8503,-23.21285 -1.4451,-1.28361 -4.656,-4.20861 -7.1354,-6.5 -2.4793,-2.2914 -10.1293,-9.31053 -17,-15.59806 -6.8706,-6.28753 -13.8421,-12.67005 -15.4921,-14.18337 -1.65,-1.51333 -5.7,-5.43554 -9,-8.71604 -3.3,-3.28049 -8.475,-8.10371 -11.5,-10.71826 -5.6892,-4.91724 -7.7537,-6.81096 -54.5,-49.99037 -15.4,-14.22495 -28.5145,-26.33526 -29.1434,-26.91181 -0.6289,-0.57655 -4.4539,-4.19827 -8.5,-8.04827 -4.0461,-3.85 -10.5066,-9.67877 -14.3566,-12.95282 -3.85,-3.27404 -7.7284,-6.64904 -8.6187,-7.5 -8.8771,-8.48498 -19.1823,-18.10859 -27.4241,-25.61009 -19.1983,-17.47398 -43.9903,-39.88718 -47.4506,-42.89774 -1.9214,-1.67164 -7.0964,-6.44578 -11.5,-10.60919 -4.4036,-4.16341 -10.2365,-9.56341 -12.9619,-12 -2.7254,-2.43659 -8.1254,-7.35779 -12,-10.936 -17.7368,-16.38011 -34.3285,-30.85549 -35.7157,-31.1601 -1.5407,-0.3383 -3.7593,1.4838 -20.829,17.10663 -5.225,4.78211 -11.75,10.68212 -14.5,13.11113 -2.75,2.429 -8.4826,7.68603 -12.739,11.68227 -4.2565,3.99625 -8.194,7.26591 -8.75,7.26591 -0.5561,0 -1.0397,0.5625 -1.0748,1.25 -0.035,0.6875 -2.1725,2.99761 -4.75,5.13357 -4.5472,3.76834 -16.3288,14.54835 -59.1356,54.10823 -11.3028,10.44549 -22.5519,20.79549 -24.9979,23 -2.446,2.20451 -11.221,10.35502 -19.50001,18.11225 -8.27898,7.75723 -21.20217,19.68223 -28.71821,26.5 -7.51603,6.81777 -23.66189,21.62095 -35.87967,32.89595 -12.21779,11.275 -24.96831,22.93003 -28.33449,25.90007 -3.36617,2.97005 -12.42032,11.34765 -20.12032,18.61691 -7.7,7.26925 -16.67822,15.63922 -19.9516,18.59992 -3.27338,2.96071 -21.49838,19.74581 -40.5,37.30024 -19.00162,17.55442 -37.03747,34.20442 -40.07967,37 C 707.45664,863.05083 644,922.02809 644,922.78788 c 0,0.57292 21.85176,21.44525 28,26.74499 2.475,2.13344 8.775,7.95361 14,12.93372 8.93631,8.51748 38.34666,35.9847 67.49258,63.03341 11.64961,10.8114 51.92374,48.4484 68.50742,64.0216 8.05052,7.56 21.36046,19.9187 30.55051,28.367 3.82222,3.5138 10.56108,9.8138 14.97524,14 4.41417,4.1863 19.93917,18.636 34.5,32.1105 14.56084,13.4745 30.52425,28.3479 35.47425,33.052 4.95,4.7041 13.49181,12.5795 18.98179,17.5009 9.55485,8.5653 85.87221,79.1132 101.54141,93.8652 4.1378,3.8955 12.2378,11.4328 18,16.7496 25.1061,23.1649 58.4026,54.2456 69.7865,65.1421 6.7854,6.4948 12.7219,11.6698 13.1922,11.5 0.4703,-0.1699 10.6022,-9.3089 22.5152,-20.3089 z m 768.2121,-435.10417 c -0.3323,-0.33229 -1.1948,-0.36781 -1.9167,-0.0789 -0.7977,0.31922 -0.5608,0.55618 0.6042,0.60416 1.0541,0.0434 1.6448,-0.19293 1.3125,-0.52522 z M 2254.9459,1723.75 c -4.6817,-17.5903 -22.4655,-35.4244 -40.6959,-40.8108 -2.9644,-0.8759 -4.25,-1.8012 -4.25,-3.0589 0,-1.2773 1.2395,-2.1331 4.25,-2.9344 17.5903,-4.6817 35.4244,-22.4655 40.8108,-40.6959 0.8759,-2.9644 1.8012,-4.25 3.0589,-4.25 1.2773,0 2.1331,1.2395 2.9344,4.25 4.6817,17.5903 22.4655,35.4244 40.6959,40.8108 2.9644,0.8759 4.25,1.8012 4.25,3.0589 0,1.2773 -1.2395,2.1331 -4.25,2.9344 -17.5903,4.6817 -35.4244,22.4655 -40.8108,40.6959 -0.8759,2.9644 -1.8012,4.25 -3.0589,4.25 -1.2773,0 -2.1331,-1.2395 -2.9344,-4.25 z"
       id="path6"
       sodipodi:nodetypes="csssssssssssssssssssssssssssssssssssssssssssssssssssssssssssssssssssssssssssssscsssssssssssssssssssssssssssssssssssssscsssssssssssssssssssssssssssssssssssssssssscsssssssssssssssssssssssssssssssscssssssssssssssssssssssssssssssssssssssssssssssscssssssssssssssssssscssssssssssssssssssssssssssssssssssssssssssssssssssssssssssssssssssssssssssssssssssssssssssscsssssssssssssssssssscsssssssssssssssssssssssssssssssssssssssssssssssssssssscsssssssssssssssssssss"
       clip-path="url(#clipPath19)"
       transform="matrix(0.47955044,0,0,0.5,136.70608,37.5)"
       inkscape:label="path6" />
  </g>
</svg>
